<?xml version="1.0" encoding="UTF-8"?>

<svg xmlns="http://www.w3.org/2000/svg" version="1.1" width="156px" height="189px" viewBox="0 0 156 189">

    <title xml:lang="en">Client error</title>

    <defs>
        <style>

            .microscope {
                fill: none;
                stroke: #212121;
                stroke-linecap: round;
                stroke-miterlimit: 10;
                stroke-width: 4;
            }

            .subject {
                fill: #cf0c4e;
            }

        </style>
    </defs>

    <g class="microscope">
        <line x1="13" y1="131" x2="76" y2="131"/>
        <path d="M24,177c0,0,0-13,12-13s84,0,84,0s12,0,12,13H24z"/>
        <path d="M24,177c0,0,0-13,12-13s84,0,84,0s12,0,12,13H24z"/>
        <g>
            <path d="M110,67.9c13.1,9.7,21.5,25.2,21.5,42.6c0,2.9-0.2,5.7-0.7,8.5"/>
            <path d="M114.1,149.7c-9.4,8.6-21.9,13.8-35.6,13.8c-21.9,0-40.8-13.4-48.8-32.4"/>
            <path d="M95.6,82.5c9.8,5.7,16.4,16.4,16.4,28.5c0,18.2-14.8,33-33,33c-10.7,0-20.1-5-26.2-12.9"/>
        </g>
        <g>
            <rect x="124.1" y="18.6" width="18" height="9"
                  transform="matrix(0.7071 0.7071 -0.7071 0.7071 55.3358 -87.3785)"/>
            <rect x="111.2" y="23.5" width="24" height="19"
                  transform="matrix(0.7071 0.7071 -0.7071 0.7071 59.4363 -77.479)"/>
            <polygon points="83,94.2 126.8,50.4 105.6,29.2 61.8,73 56.1,73 52.9,76.2 79.8,103.1 83,99.9 "/>
        </g>
        <g>
            <circle cx="122.5" cy="134.5" r="16.5"/>
            <circle cx="122.5" cy="134.5" r="6.5"/>
        </g>
    </g>

    <circle class="subject" cx="47" cy="112" r="5"/>

</svg>
