<?xml version="1.0" encoding="UTF-8"?>

<svg xmlns="http://www.w3.org/2000/svg" version="1.1" width="116px" height="48px" viewBox="0 0 116 48">

    <title xml:lang="en">Libero Logo</title>

    <defs>
        <style>

            .black {
                fill: #212121;
            }

            .grey {
                fill: #666666;
            }

            .light-red {
                fill: #cf0c4e;
            }

            .dark-red {
                fill: #732060;
            }

            .light-green {
                fill: #629f43;
            }

            .dark-green {
                fill: #046535;
            }

            .light-blue {
                fill: #0a9dd9;
            }

            .dark-blue {
                fill: #0961ab;
            }

        </style>
    </defs>

    <g id="logo">
        <polygon class="dark-red" points="41 12.69 32 17.89 32 41.4 41 36.07 41 12.69"/>
        <polygon class="light-red" points="22.25 12.26 32 17.89 41 12.69 31.37 6.99 22.25 12.26"/>
        <polygon class="light-green" points="1 25.68 1 36.07 21.25 47.77 21.25 37.37 1 25.68"/>
        <polygon class="dark-green" points="31 31.75 21.25 37.37 21.25 47.77 31 41.99 31 31.75"/>
        <polygon class="dark-blue" points="1 12.69 1 23.95 10 29.15 10 17.89 1 12.69"/>
        <polygon class="light-blue" points="1 12.69 10 17.89 30.14 6.26 21.25 1 1 12.69"/>
    </g>

    <g id="text" class="black">
        <path d="M51,30.63V19.3h2.75v9h4.39v2.38Z"/>
        <path d="M61,30.63V19.3h2.75V30.63Z"/>
        <path d="M76.54,27.34a3.16,3.16,0,0,1-.37,1.56,2.87,2.87,0,0,1-1,1,4.12,4.12,0,0,1-1.38.55,7,7,0,0,
            1-1.59.17H67.7V19.3h4.52a7,7,0,0,1,1.34.14,4.24,4.24,0,0,1,1.25.46,2.76,2.76,0,0,1,.91.89,2.7,2.7,0,0,
            1,.35,1.43,2.36,2.36,0,0,1-.51,1.56,2.84,2.84,0,0,1-1.34.88v0a3.06,3.06,0,0,1,.9.29,2.91,2.91,0,0,1,.74.55,
            2.77,2.77,0,0,1,.49.79A2.67,2.67,0,0,1,76.54,27.34Zm-3.11-4.76a.92.92,0,0,0-.44-.84,2.64,2.64,0,0,
            0-1.3-.26H70.34v2.34h1.48A2,2,0,0,0,73,23.5,1.06,1.06,0,0,0,73.43,22.58Zm.37,4.5a1,1,0,0,0-.53-1,3.1,3.1,0,
            0,0-1.41-.27H70.34v2.59h1.54a3.81,3.81,0,0,0,.66-.05,2.45,2.45,0,0,0,.63-.2,1.16,1.16,0,0,0,.63-1.09Z"/>
        <path d="M79.94,30.63V19.3h7.62v2.31h-5v2.14h4.71v2.19H82.58V28.3h5.27v2.33Z"/>
        <path d="M97.32,30.63l-2.46-4.49h-.93v4.49H91.26V19.3h4.32a7.66,7.66,0,0,1,1.59.17,4.08,4.08,0,0,1,1.39.57,2.94,
            2.94,0,0,1,1,1.06,3.22,3.22,0,0,1,.37,1.63,3,3,0,0,1-.62,1.93,3.34,3.34,0,0,1-1.73,1.12l3,
            4.85Zm-.11-7.85a1.14,1.14,0,0,0-.17-.65,1.1,1.1,0,0,0-.44-.39,1.77,1.77,0,0,0-.59-.18,4.72,4.72,0,0,0-.64,
            0H93.91v2.64h1.3a5.62,5.62,0,0,0,.7,0,2.65,2.65,0,0,0,.64-.2,1.27,1.27,0,0,0,.47-.42A1.18,1.18,0,0,0,97.21,
            22.78Z"/>
        <path d="M115.27,24.92a6.34,6.34,0,0,1-.46,2.46,5.61,5.61,0,0,1-1.29,1.9,5.56,5.56,0,0,1-2,1.22,6.84,6.84,0,0,
            1-2.46.44,6.77,6.77,0,0,1-2.46-.44,5.57,5.57,0,0,1-3.24-3.12,6.34,6.34,0,0,1-.46-2.46,6.24,6.24,0,0,1,
            .46-2.46,5.35,5.35,0,0,1,1.29-1.86,5.66,5.66,0,0,1,2-1.18A7,7,0,0,1,109.1,19a7.06,7.06,0,0,1,2.46.42,5.61,
            5.61,0,0,1,2,1.18,5.35,5.35,0,0,1,1.29,1.86A6.24,6.24,0,0,1,115.27,24.92Zm-2.93,0a3.93,3.93,0,0,0-.24-1.38,
            3.31,3.31,0,0,0-.66-1.09,2.86,2.86,0,0,0-1-.72,3.36,3.36,0,0,0-2.64,0,3.05,3.05,0,0,0-1,.72,3,3,0,0,0-.66,
            1.09,3.93,3.93,0,0,0-.24,1.38,4.11,4.11,0,0,0,.24,1.42,3.26,3.26,0,0,0,.67,1.11,3.08,3.08,0,0,0,1,.73,3.34,
            3.34,0,0,0,1.32.26,3.29,3.29,0,0,0,1.31-.26,3.23,3.23,0,0,0,1-.73,3.26,3.26,0,0,0,.67-1.11A4.11,4.11,0,0,0,
            112.34,24.92Z"/>
    </g>

</svg>
